<svg version="1.0" xmlns="http://www.w3.org/2000/svg" width="666.667" height="666.667" viewBox="0 0 500 500"><path d="M212.7 62.7c-.4.3-.7 3.3-.7 6.5V75h-25v11.9l-12.2.3-12.3.3-.3 12.2-.3 12.3H150v13h-13v25h-12v125h12v25h13v25h11.9l.3 6.2.3 6.3 6.3.3 6.2.3V363h12v49h-37v13h-25v12h-25v13h63v-13h-13v-12h38v-12h24v12h13v13h25v-13h25v-12h13v-13h12v-12h12v25h13v24h-13v13h88v-13h-25v-12h-25v-13h-25v-62h13v-12h12v-24.9l6.3-.3 6.2-.3.3-24.8.2-24.7h12V162h-11.9l-.3-12.3-.3-12.2-6.2-.3-6.3-.3V112h-12v-12h-13V87h-12V75h-38V62h-30.8c-17 0-31.2.3-31.5.7zm11.5 31.5.3 6.3 6.2.3 6.2.3.3 12.2.3 12.2 12.3.3 12.2.3V137h-13v12h-11v-12h-24.9l-.3-6.3-.3-6.2-12.2-.3-12.3-.3V112h-12v-11h12V88h35.9l.3 6.2zm87.8-.7v5.4l-6.2.3-6.3.3-.3 18.7-.2 18.8h-10.9l-.3-6.3-.3-6.2-5.7-.3-5.7-.3-.3-5.7-.3-5.7-6.2-.3-6.3-.3v-10.8l6.3-.3 6.2-.3.3-6.3.3-6.2H312v5.5zm12 13v5.5h-11v-11h11v5.5zm13 12v5.5h-11v-11h11v5.5zm-62 69V200h5.9c3.3 0 6.3.5 6.6 1 .4.6.3 6.2-.1 12.5l-.7 11.5H262v25h-12v13h-11.7l-.6-9.8c-.4-5.3-.7-13.9-.7-19V225h-12v-11.9l6.3-.3 6.2-.3.3-6.3.3-6.2H250v-25h25v12.5zM212 219v6h-12v-12h12v6zm75 37v6h13v-12h38l-.2 18.7-.3 18.8-6.2.3-6.3.3V300h12v25h-12v25h-13v25h-12v12h-25v13h-50v-13h-12v-12h-13v-13h-11.9l-.3-12.3-.3-12.2-6.3-.3-6.3-.3.3-12.2.3-12.2 24.8-.3 24.7-.2v-24h-12v12h-38v-38.3l9.8.6c5.3.4 16.6.7 25 .7H225v25.1l6.3-.3 6.2-.3.3-6.3.3-6.2h23.8l.3 6.2.3 6.3 6.3.3 6.2.3V250h12v6z"/><path d="M275 294v6h12v-12h-12v6zM288 306v6h37v-12h-37v6zM225 319v6h50v-12h-50v6zM212 344v6h13v13h12v12h26v-12h12v-13h-12v-12h-51v6zm50 12v6h-24v-12h24v6z"/></svg>